<?xml version="1.0" encoding="utf-8"?>
<!-- Generator: Adobe Illustrator 27.9.0, SVG Export Plug-In . SVG Version: 6.00 Build 0)  -->
<svg version="1.1" id="Layer_1" xmlns="http://www.w3.org/2000/svg" xmlns:xlink="http://www.w3.org/1999/xlink" x="0px" y="0px"
	 viewBox="0 0 241 241" style="enable-background:new 0 0 241 241;" xml:space="preserve">
<style type="text/css">
	.st0{fill-rule:evenodd;clip-rule:evenodd;fill:#F0F8FF;}
</style>
<path id="路径" class="st0" d="M63,79.4c1-2.4,3.3-4,6-4h64.4c24.9,0,45.1,20.2,45.1,45.1c0,24.9-20.2,45.1-45.1,45.1h-58
	c-3.6,0-6.4-2.9-6.4-6.4s2.9-6.4,6.4-6.4h58c17.8,0,32.2-14.4,32.2-32.2c0-17.8-14.4-32.2-32.2-32.2H84.5l11.6,11.6
	c2.5,2.5,2.5,6.6,0,9.1c-2.5,2.5-6.6,2.5-9.1,0L64.4,86.4C62.5,84.5,62,81.8,63,79.4z"/>
</svg>
