<?xml version="1.0" encoding="utf-8"?>
<!-- Generator: Adobe Illustrator 27.9.0, SVG Export Plug-In . SVG Version: 6.00 Build 0)  -->
<svg version="1.1" id="Layer_1" xmlns="http://www.w3.org/2000/svg" xmlns:xlink="http://www.w3.org/1999/xlink" x="0px" y="0px"
	 viewBox="0 0 241 241" style="enable-background:new 0 0 241 241;" xml:space="preserve">
<style type="text/css">
	.st0{fill:#F0F8FF;}
</style>
<path class="st0" d="M169.1,4.3H71.7C29.4,4.3,4.2,29.5,4.2,71.8v97.3c0,42.4,25.2,67.6,67.5,67.6H169c42.3,0,67.5-25.2,67.5-67.5
	V71.8C236.6,29.5,211.4,4.3,169.1,4.3z M142.7,168.5H85.5c-4.8,0-8.7-4-8.7-8.7s4-8.7,8.7-8.7h57.2c14.9,0,27.1-12.1,27.1-27.1
	s-12.1-27.1-27.1-27.1H83.8l3,3c3.4,3.5,3.4,8.9-0.1,12.4c-1.7,1.7-4,2.6-6.2,2.6c-2.2,0-4.4-0.8-6.2-2.6L56.1,94
	c-3.4-3.4-3.4-8.9,0-12.3l18.2-18.2c3.4-3.4,8.9-3.4,12.3,0c3.4,3.4,3.4,8.9,0,12.3l-3.8,3.8h59.9c24.5,0,44.5,20,44.5,44.5
	S167.2,168.5,142.7,168.5z"/>
</svg>
