<?xml version="1.0" encoding="utf-8"?>
<!-- Generator: Adobe Illustrator 27.9.0, SVG Export Plug-In . SVG Version: 6.00 Build 0)  -->
<svg version="1.1" id="Layer_1" xmlns:sketch="http://www.bohemiancoding.com/sketch/ns"
	 xmlns="http://www.w3.org/2000/svg" xmlns:xlink="http://www.w3.org/1999/xlink" x="0px" y="0px" viewBox="0 0 800 800"
	 style="enable-background:new 0 0 800 800;" xml:space="preserve">
<style type="text/css">
	.st0{fill-rule:evenodd;clip-rule:evenodd;fill:#A56DEE;}
</style>
<g id="Page-1" sketch:type="MSPage">
	<g id="Icon-Set-Filled" transform="translate(-570.000000, -1089.000000)" sketch:type="MSLayerGroup">
		<path id="cross-circle" sketch:type="MSShapeGroup" class="st0" d="M1111.4,1595c9.8,9.8,9.8,25.8,0,35.5
			c-9.7,9.8-25.6,9.8-35.4,0l-105.9-106l-106.6,106.7c-9.8,9.8-25.8,9.8-35.6,0c-9.8-10-9.8-26,0-35.7l106.6-106.8L828.6,1383
			c-9.8-9.8-9.8-25.8,0-35.5c9.7-9.8,25.6-9.8,35.4,0l105.9,106l107.4-107.5c9.8-9.8,25.8-9.8,35.6,0c9.8,10,9.8,25.8,0,35.7
			l-107.4,107.5L1111.4,1595L1111.4,1595z M970,1089c-220.9,0-400,179-400,400s179.1,400,400,400s400-179,400-400
			S1190.9,1089,970,1089L970,1089z"/>
	</g>
</g>
</svg>
