<?xml version="1.0" encoding="utf-8"?>
<!-- Generator: Adobe Illustrator 27.9.0, SVG Export Plug-In . SVG Version: 6.00 Build 0)  -->
<svg version="1.1" id="Layer_1" xmlns="http://www.w3.org/2000/svg" xmlns:xlink="http://www.w3.org/1999/xlink" x="0px" y="0px"
	 viewBox="0 0 800 800" style="enable-background:new 0 0 800 800;" xml:space="preserve">
<style type="text/css">
	.st0{fill-rule:evenodd;clip-rule:evenodd;fill:#45108A;}
</style>
<g id="style_x3D_fill">
	<g id="email">
		<path id="Subtract" class="st0" d="M233.3,91.7c-53.8,0-102.5,13.5-137.8,46.3c-35.7,33.1-53.8,82.3-53.8,145.4v233.3
			c0,63.1,18.2,112.3,53.8,145.4c35.3,32.8,84,46.3,137.8,46.3h333.3c53.8,0,102.5-13.5,137.8-46.3c35.7-33.1,53.8-82.3,53.8-145.4
			V283.3c0-63.1-18.2-112.3-53.8-145.4c-35.3-32.8-84-46.3-137.8-46.3H233.3z M641,278.7c10.9-8.4,12.9-24.1,4.5-35.1
			c-8.4-10.9-24.1-12.9-35.1-4.5L425.5,382.1c-15,11.6-35.9,11.6-51,0L189.6,239.2c-10.9-8.4-26.6-6.4-35.1,4.5
			c-8.4,10.9-6.4,26.6,4.5,35.1l184.9,142.9c33,25.5,79.1,25.5,112.1,0L641,278.7z"/>
	</g>
</g>
</svg>
