<?xml version="1.0" encoding="utf-8"?>
<!-- Generator: Adobe Illustrator 27.9.0, SVG Export Plug-In . SVG Version: 6.00 Build 0)  -->
<svg version="1.1" id="Layer_1" xmlns="http://www.w3.org/2000/svg" xmlns:xlink="http://www.w3.org/1999/xlink" x="0px" y="0px"
	 viewBox="0 0 48 48" style="enable-background:new 0 0 48 48;" xml:space="preserve">
<style type="text/css">
	.st0{display:none;fill:url(#SVGID_1_);}
	.st1{fill:#F5F5F5;}
</style>
<linearGradient id="SVGID_1_" gradientUnits="userSpaceOnUse" x1="-1470.4158" y1="1480.9617" x2="-1455.5706" y2="1495.808" gradientTransform="matrix(2 0 0 2 2950 -2950)">
	<stop  offset="0" style="stop-color:#FFFFFF;stop-opacity:0.6"/>
	<stop  offset="0.493" style="stop-color:#FFFFFF;stop-opacity:0"/>
	<stop  offset="0.997" style="stop-color:#FFFFFF;stop-opacity:0.3"/>
</linearGradient>
<path class="st0" d="M24,5.9c0.8,0,1.7,0.2,2.4,0.6l12,6.7C40,14,41,15.7,41,17.5V36c0,2.8-2.2,5-5,5H12c-2.8,0-5-2.2-5-5V17.5
	c0-1.8,1-3.5,2.6-4.4l12-6.7C22.3,6.1,23.2,5.9,24,5.9 M24,4.9c-1,0-2,0.3-2.9,0.8l-12,6.7c-1.9,0.9-3.1,3-3.1,5.1V36
	c0,3.3,2.7,6,6,6h24c3.3,0,6-2.7,6-6V17.5c0-2.2-1.2-4.2-3.1-5.2l-12-6.7C26,5.1,25,4.9,24,4.9L24,4.9z"/>
<path class="st1" d="M38.9,12.3l-12-6.7c-1.8-1-4-1-5.8,0l-12,6.7c-1.9,1-3.1,3-3.1,5.2V36c0,3.3,2.7,6,6,6h6V30c0-2.2,1.8-4,4-4h4
	c2.2,0,4,1.8,4,4v12h6c3.3,0,6-2.7,6-6V17.5C42,15.4,40.8,13.4,38.9,12.3z"/>
</svg>
