<?xml version="1.0" encoding="utf-8"?>
<!-- Generator: Adobe Illustrator 27.9.0, SVG Export Plug-In . SVG Version: 6.00 Build 0)  -->
<svg version="1.1" id="Layer_1" xmlns="http://www.w3.org/2000/svg" xmlns:xlink="http://www.w3.org/1999/xlink" x="0px" y="0px"
	 viewBox="0 0 241.4 241.4" style="enable-background:new 0 0 241.4 241.4;" xml:space="preserve">
<style type="text/css">
	.st0{fill:#F0F8FF;}
</style>
<path class="st0" d="M45.6,132.1h63.7c6.3,0,11.4-5.1,11.4-11.4s-5.1-11.4-11.4-11.4H45.6l14.7-14.7c4.5-4.5,4.5-11.7,0-16.1
	c-4.5-4.5-11.7-4.5-16.1,0L11,111.6c-0.2,0.2-0.3,0.3-0.5,0.5c-2.4,2.1-3.8,5.1-3.8,8.5s1.5,6.4,3.8,8.5c0.2,0.2,0.3,0.4,0.5,0.5
	l33.2,33.2c4.5,4.5,11.7,4.5,16.1,0c4.5-4.5,4.5-11.7,0-16.1L45.6,132.1z"/>
<path class="st0" d="M92.2,6.7c-15.7,0-28.5,12.8-28.5,28.5v31.5c1.7,1,3.3,2.2,4.7,3.6c7.5,7.5,8.7,18.8,3.6,27.5h37.2
	c12.6,0,22.8,10.2,22.8,22.8s-10.2,22.8-22.8,22.8H72c5,8.7,3.8,20.1-3.6,27.5c-1.4,1.4-3,2.7-4.7,3.6V206
	c0,15.7,12.8,28.5,28.5,28.5h108.3c18.9,0,34.2-15.3,34.2-34.2V40.9c0-18.9-15.3-34.2-34.2-34.2C200.5,6.7,92.2,6.7,92.2,6.7z"/>
</svg>
