<?xml version="1.0" encoding="utf-8"?>
<!-- Generator: Adobe Illustrator 27.9.0, SVG Export Plug-In . SVG Version: 6.00 Build 0)  -->
<svg version="1.1" id="Layer_1" xmlns="http://www.w3.org/2000/svg" xmlns:xlink="http://www.w3.org/1999/xlink" x="0px" y="0px"
	 viewBox="0 0 800 800" style="enable-background:new 0 0 800 800;" xml:space="preserve">
<style type="text/css">
	.st0{fill:#F0F8FF;}
</style>
<path class="st0" d="M400,66.7C216.3,66.7,66.7,216.3,66.7,400S216.3,733.3,400,733.3S733.3,583.7,733.3,400S583.7,66.7,400,66.7z
	 M559.3,323.3l-189,189c-4.7,4.7-11,7.3-17.7,7.3s-13-2.7-17.7-7.3L240.7,418c-9.7-9.7-9.7-25.7,0-35.3c9.7-9.7,25.7-9.7,35.3,0
	l76.7,76.7L524,288c9.7-9.7,25.7-9.7,35.3,0C569,297.7,569,313.3,559.3,323.3z"/>
</svg>
