<?xml version="1.0" encoding="utf-8"?>
<!-- Generator: Adobe Illustrator 27.9.0, SVG Export Plug-In . SVG Version: 6.00 Build 0)  -->
<svg version="1.1" id="Layer_1" xmlns="http://www.w3.org/2000/svg" xmlns:xlink="http://www.w3.org/1999/xlink" x="0px" y="0px"
	 viewBox="0 0 800 800" style="enable-background:new 0 0 800 800;" xml:space="preserve">
<style type="text/css">
	.st0{fill:#A56DEE;}
</style>
<g>
	<g>
		<path class="st0" d="M400,0C179.4,0,0,179.4,0,400s179.4,400,400,400c4,0,8-0.5,12-0.6l1.4,0.3c1.1,0.2,2.2,0.3,3.3,0.3
			c1.5,0,3.1-0.2,4.6-0.6l1.9-0.5C632.9,786.7,800,612.8,800,400C800,179.4,620.6,0,400,0z M637.7,678.6c-1.6-5.1-5.1-9.4-10.2-11.1
			l-87.7-29.2c-30.6-12.8-44.9-61.8-48.2-81.5c22.7-21.1,43.7-52.5,43.7-80.9c0-9.7,2.7-13.4,2.2-13.5c5.2-1.3,9.4-5,11.4-10
			c1.6-4.1,16-40.7,16-65.4c0-1.4-0.2-2.7-0.5-4c-2.1-8.4-7-16.8-14.3-22.1v-77.6c0-48-14.6-68.1-30.1-79.7
			c-3.5-23.9-29-70.3-119.9-70.3c-92.9,0-150,87.4-150,150V361c-7.3,5.3-12.2,13.7-14.3,22.1c-0.3,1.3-0.5,2.7-0.5,4
			c0,24.7,14.4,61.3,16,65.4c2,5,4.6,8.1,9.8,9.4c1.1,0.6,3.8,4.4,3.8,14c0,28.4,21,59.8,43.7,80.9c-3.3,19.6-17.4,68.6-47.1,81
			l-88.9,29.6c-5.1,1.7-8.8,5.9-10.4,11C83.4,611.2,33.3,511.4,33.3,400c0-202.2,164.5-366.7,366.7-366.7S766.6,197.8,766.6,400
			C766.7,511.5,716.5,611.3,637.7,678.6z"/>
	</g>
</g>
</svg>
