<svg xmlns="http://www.w3.org/2000/svg" xmlns:xlink="http://www.w3.org/1999/xlink" viewBox="0 0 231.79 241.37"><defs><style>.cls-1{fill:url(#linear-gradient);}.cls-2{fill:url(#linear-gradient-2);}.cls-3{fill:url(#linear-gradient-3);}.cls-4{fill:url(#linear-gradient-4);}</style><linearGradient id="linear-gradient" x1="3.85" y1="326.16" x2="231.56" y2="326.16" gradientTransform="matrix(1, 0, 0, -1, 0, 526.01)" gradientUnits="userSpaceOnUse"><stop offset="0" stop-color="#2e3192"/><stop offset="1" stop-color="#93278f"/></linearGradient><linearGradient id="linear-gradient-2" x1="0.49" y1="381.78" x2="231.21" y2="381.78" gradientTransform="matrix(1, 0, 0, -1, 0, 526.01)" gradientUnits="userSpaceOnUse"><stop offset="0" stop-color="#93278f"/><stop offset="1" stop-color="#2e3192"/></linearGradient><linearGradient id="linear-gradient-3" x1="1.06" y1="420.93" x2="231.79" y2="420.93" xlink:href="#linear-gradient"/><linearGradient id="linear-gradient-4" x1="-0.02" y1="479.25" x2="231.52" y2="479.25" gradientTransform="matrix(1, 0, 0, -1, 0.2, 525.96)" xlink:href="#linear-gradient-2"/></defs><title>Zizo graphic New Logo</title><g id="Layer_2" data-name="Layer 2"><g id="Layer_1-2" data-name="Layer 1"><g id="Layer_2-2" data-name="Layer 2"><g id="Layer_1-2-2" data-name="Layer 1-2"><g id="Zizo_Graphics_New_Logo" data-name="Zizo Graphics New Logo"><path class="cls-1" d="M231.56,238.19v.64H3.85v-.34c23.86-62.08,94.2-93.32,157.11-69.78A121.08,121.08,0,0,1,231.56,238.19Z"/><path class="cls-2" d="M231.21,49.92c-1.61,106-89.18,191.45-197,191.45A200.34,200.34,0,0,1,.49,238.53c1.61-106,89.21-191.45,197-191.45A199.3,199.3,0,0,1,231.21,49.92Z"/><path class="cls-3" d="M231.79,10.77c-1.61,106-89.19,191.45-197,191.45a200.54,200.54,0,0,1-33.72-2.84c1.61-106,89.22-191.45,197-191.45A199.39,199.39,0,0,1,231.79,10.77Z"/><path class="cls-4" d="M231.54,10.61C215.12,60,168.44,93.33,115.8,93.34S16.45,60,0,10.69a634.41,634.41,0,0,1,231.54-.08Z"/></g></g></g></g></g></svg>