<?xml version="1.0" encoding="utf-8"?>
<!-- Generator: Adobe Illustrator 27.9.0, SVG Export Plug-In . SVG Version: 6.00 Build 0)  -->
<svg version="1.1" id="Layer_2_00000178914251383429919130000007712900102869670834_"
	 xmlns="http://www.w3.org/2000/svg" xmlns:xlink="http://www.w3.org/1999/xlink" x="0px" y="0px" viewBox="0 0 161.1 47"
	 style="enable-background:new 0 0 161.1 47;" xml:space="preserve">
<style type="text/css">
	.st0{fill:#FFFFF0;}
	.st1{fill:url(#SVGID_1_);}
	.st2{fill:url(#SVGID_00000060019201089621522920000002039877855476488619_);}
	.st3{fill:url(#SVGID_00000130616581735472087120000009217898335153298854_);}
	.st4{fill:url(#SVGID_00000178918182970328173660000009028963890795637408_);}
</style>
<g id="Layer_1-2_00000129176117472942230450000016539536423717661355_">
	<g>
		<path class="st0" d="M65.3,13.5V17H52.8v-2.8L59,7.1h-6V3.5h12v2.8l-6.2,7.2H65.3L65.3,13.5z"/>
		<path class="st0" d="M66.7,3.5h4.6V17h-4.6V3.5z"/>
		<path class="st0" d="M85.6,13.5V17H73v-2.8L79.2,7h-6.1V3.5h12v2.8L79,13.5H85.6L85.6,13.5z"/>
		<path class="st0" d="M86.2,10.3c0-4.1,3.3-7,7.7-7s7.7,3,7.7,7s-3.3,7-7.7,7S86.2,14.4,86.2,10.3z M97,10.3c0-2.1-1.4-3.4-3.1-3.4
			s-3.1,1.3-3.1,3.4s1.4,3.4,3.1,3.4S97,12.4,97,10.3z"/>
		<path class="st0" d="M62.3,33h4v5.7c-1.7,1.1-3.9,1.7-6,1.7c-4.4,0-7.6-2.9-7.6-7s3.2-7,7.7-7c2.7,0,4.9,0.9,6.2,2.6l-2.9,2.6
			c-0.9-1-1.8-1.5-3.1-1.5c-2,0-3.3,1.3-3.3,3.4s1.3,3.4,3.3,3.4c0.6,0,1.1-0.1,1.7-0.3L62.3,33L62.3,33z"/>
		<path class="st0" d="M74.1,36.7h-1.2v3.4h-4.6V26.6h6.6c3.8,0,6.2,2,6.2,5.1c0,1.9-0.9,3.4-2.6,4.2l2.9,4.2h-4.9L74.1,36.7
			L74.1,36.7z M74.6,30.1h-1.7v3.2h1.7c1.3,0,1.9-0.6,1.9-1.6S75.8,30.1,74.6,30.1z"/>
		<path class="st0" d="M92.1,37.7h-5.2L86,40.1h-4.7l6-13.5h4.5l6,13.5H93L92.1,37.7L92.1,37.7z M90.8,34.5l-1.3-3.4l-1.3,3.4H90.8
			L90.8,34.5z"/>
		<path class="st0" d="M111.3,31.7c0,3.1-2.4,5.1-6.2,5.1h-2v3.3h-4.6V26.6h6.6C108.9,26.6,111.3,28.6,111.3,31.7z M106.7,31.7
			c0-1-0.6-1.6-1.9-1.6h-1.7v3.2h1.7C106.1,33.3,106.7,32.7,106.7,31.7z"/>
		<path class="st0" d="M126.3,26.6v13.5h-4.6v-5h-4.2v5h-4.6V26.6h4.6v4.8h4.2v-4.8C121.7,26.6,126.3,26.6,126.3,26.6z"/>
		<path class="st0" d="M128.5,26.6h4.6v13.5h-4.6V26.6z"/>
		<path class="st0" d="M134.8,33.3c0-4.1,3.2-7,7.6-7c2.7,0,4.8,1,6.1,2.7l-2.9,2.6c-0.8-1-1.8-1.6-3-1.6c-1.9,0-3.2,1.3-3.2,3.4
			s1.3,3.4,3.2,3.4c1.2,0,2.2-0.6,3-1.6l2.9,2.6c-1.4,1.7-3.4,2.7-6.1,2.7C138,40.4,134.8,37.5,134.8,33.3z"/>
		<path class="st0" d="M148.8,39l1.5-3.3c1.3,0.8,3,1.2,4.5,1.2c1.3,0,1.8-0.3,1.8-0.7c0-1.7-7.6-0.3-7.6-5.4c0-2.5,2.1-4.5,6.4-4.5
			c1.8,0,3.7,0.4,5.1,1.2l-1.4,3.3c-1.4-0.7-2.6-1-3.8-1c-1.4,0-1.8,0.4-1.8,0.9c0,1.6,7.6,0.3,7.6,5.2c0,2.5-2.1,4.5-6.4,4.5
			C152.4,40.4,150.1,39.8,148.8,39L148.8,39z"/>
	</g>
	<g id="Pictorial">
		<g id="Layer_1-2">
			<g id="Zizo_Graphics_New_Logo">
				
					<linearGradient id="SVGID_1_" gradientUnits="userSpaceOnUse" x1="3.5178" y1="-269.448" x2="37.9978" y2="-269.448" gradientTransform="matrix(1 3.490658e-04 3.490658e-04 -1 -0.622 -236.1053)">
					<stop  offset="0" style="stop-color:#2E3192"/>
					<stop  offset="1" style="stop-color:#93278F"/>
				</linearGradient>
				<path class="st1" d="M37.3,38.7c-2.5-7.4-9.4-12.3-17.2-12.3s-14.8,5-17.2,12.3c4.8,0.9,10.8,1.6,17.5,1.6
					C26.9,40.3,32.6,39.6,37.3,38.7z"/>
				
					<linearGradient id="SVGID_00000137813654808090014180000013722324417284393648_" gradientUnits="userSpaceOnUse" x1="2.8" y1="7100.1899" x2="37.16" y2="7100.1899" gradientTransform="matrix(1 0 0 1 0 -7075.4399)">
					<stop  offset="0" style="stop-color:#93278F"/>
					<stop  offset="1" style="stop-color:#2E3192"/>
				</linearGradient>
				<path style="fill:url(#SVGID_00000137813654808090014180000013722324417284393648_);" d="M37.2,10.7
					C36.9,26.5,23.9,39.2,7.8,39.2c-1.7,0-3.4-0.1-5-0.4C3,23,16.1,10.3,32.1,10.3C33.8,10.3,35.5,10.4,37.2,10.7z"/>
				
					<linearGradient id="SVGID_00000045583418363782452740000018440358426487334814_" gradientUnits="userSpaceOnUse" x1="2.9" y1="7094.3901" x2="37.26" y2="7094.3901" gradientTransform="matrix(1 0 0 1 0 -7075.4399)">
					<stop  offset="0" style="stop-color:#2E3192"/>
					<stop  offset="1" style="stop-color:#93278F"/>
				</linearGradient>
				<path style="fill:url(#SVGID_00000045583418363782452740000018440358426487334814_);" d="M37.2,4.9C37,20.7,24,33.4,7.9,33.4
					c-1.7,0-3.4-0.1-5-0.4C3.1,17.2,16.2,4.5,32.2,4.5C33.9,4.5,35.6,4.6,37.2,4.9z"/>
				
					<linearGradient id="SVGID_00000096758211706712510850000004114182906166685338_" gradientUnits="userSpaceOnUse" x1="0.85" y1="7087.2012" x2="35.35" y2="7087.2012" gradientTransform="matrix(1 -3.490658e-04 3.490658e-04 1 -0.622 -7076.9448)">
					<stop  offset="0" style="stop-color:#93278F"/>
					<stop  offset="1" style="stop-color:#2E3192"/>
				</linearGradient>
				<path style="fill:url(#SVGID_00000096758211706712510850000004114182906166685338_);" d="M37.2,4.9c-2.5,7.3-9.4,12.3-17.2,12.3
					S5.2,12.2,2.7,4.9C7.5,4,13.5,3.3,20.3,3.3C26.8,3.3,32.5,4,37.2,4.9z"/>
			</g>
		</g>
	</g>
</g>
</svg>
