<?xml version="1.0" encoding="utf-8"?>
<!-- Generator: Adobe Illustrator 27.9.0, SVG Export Plug-In . SVG Version: 6.00 Build 0)  -->
<svg version="1.1" id="Layer_1" xmlns="http://www.w3.org/2000/svg" xmlns:xlink="http://www.w3.org/1999/xlink" x="0px" y="0px"
	 viewBox="0 0 800 800" style="enable-background:new 0 0 800 800;" xml:space="preserve">
<style type="text/css">
	.st0{fill:#45108A;}
	.st1{fill-rule:evenodd;clip-rule:evenodd;fill:#45108A;}
</style>
<path class="st0" d="M283.3,341.7c-32.2,0-58.3,26.1-58.3,58.3s26.1,58.3,58.3,58.3s58.3-26.1,58.3-58.3S315.5,341.7,283.3,341.7z"
	/>
<path class="st1" d="M66.7,400c0-157.1,0-235.7,48.8-284.5C164.3,66.7,242.9,66.7,400,66.7c157.1,0,235.7,0,284.5,48.8
	c48.8,48.8,48.8,127.4,48.8,284.5c0,157.1,0,235.7-48.8,284.5c-48.8,48.8-127.4,48.8-284.5,48.8c-157.1,0-235.7,0-284.5-48.8
	C66.7,635.7,66.7,557.1,66.7,400z M388.8,375c-11.3-47.8-54.2-83.3-105.4-83.3C223.5,291.7,175,340.2,175,400
	s48.5,108.3,108.3,108.3c51.2,0,94.1-35.6,105.4-83.3h102.9v25c0,13.8,11.2,25,25,25c13.8,0,25-11.2,25-25v-25h25
	c4.6,0,8.3,3.7,8.3,8.3v33.3c0,13.8,11.2,25,25,25c13.8,0,25-11.2,25-25v-33.3c0-32.2-26.1-58.3-58.3-58.3H388.8z"/>
</svg>
