<?xml version="1.0" encoding="UTF-8"?>
<svg id="Layer_2" data-name="Layer 2" xmlns="http://www.w3.org/2000/svg" xmlns:xlink="http://www.w3.org/1999/xlink" viewBox="0 0 161.06 47">
  <defs>
    <style>
      .cls-1 {
        fill: url(#linear-gradient-14);
        filter: url(#drop-shadow-3);
      }

      .cls-1, .cls-2, .cls-3, .cls-4, .cls-5, .cls-6, .cls-7, .cls-8, .cls-9, .cls-10, .cls-11, .cls-12, .cls-13, .cls-14, .cls-15, .cls-16 {
        stroke-width: 0px;
      }

      .cls-2 {
        fill: url(#linear-gradient-12);
      }

      .cls-3 {
        fill: url(#linear-gradient);
      }

      .cls-4 {
        fill: url(#linear-gradient-15);
        filter: url(#drop-shadow-4);
      }

      .cls-5 {
        fill: url(#linear-gradient-6);
      }

      .cls-6 {
        fill: url(#linear-gradient-11);
      }

      .cls-7 {
        fill: url(#linear-gradient-5);
      }

      .cls-17 {
        filter: url(#drop-shadow-1);
      }

      .cls-8 {
        fill: url(#linear-gradient-16);
        filter: url(#drop-shadow-5);
      }

      .cls-9 {
        fill: url(#linear-gradient-2);
      }

      .cls-10 {
        fill: url(#linear-gradient-7);
      }

      .cls-11 {
        fill: url(#linear-gradient-3);
      }

      .cls-12 {
        fill: url(#linear-gradient-13);
        filter: url(#drop-shadow-2);
      }

      .cls-13 {
        fill: url(#linear-gradient-9);
      }

      .cls-14 {
        fill: url(#linear-gradient-8);
      }

      .cls-15 {
        fill: url(#linear-gradient-10);
      }

      .cls-16 {
        fill: url(#linear-gradient-4);
      }
    </style>
    <filter id="drop-shadow-1" filterUnits="userSpaceOnUse">
      <feOffset dx="2.56" dy="2.56"/>
      <feGaussianBlur result="blur" stdDeviation="3.2"/>
      <feFlood flood-color="#000" flood-opacity=".3"/>
      <feComposite in2="blur" operator="in"/>
      <feComposite in="SourceGraphic"/>
    </filter>
    <linearGradient id="linear-gradient" x1="52.8" y1="10.27" x2="65.34" y2="10.27" gradientUnits="userSpaceOnUse">
      <stop offset="0" stop-color="#2b2b2b"/>
      <stop offset="1" stop-color="#1a1a1a"/>
    </linearGradient>
    <linearGradient id="linear-gradient-2" x1="66.68" x2="71.28" xlink:href="#linear-gradient"/>
    <linearGradient id="linear-gradient-3" x1="73.02" x2="85.56" xlink:href="#linear-gradient"/>
    <linearGradient id="linear-gradient-4" x1="86.25" x2="101.66" xlink:href="#linear-gradient"/>
    <linearGradient id="linear-gradient-5" x1="52.74" y1="33.35" x2="66.71" y2="33.35" xlink:href="#linear-gradient"/>
    <linearGradient id="linear-gradient-6" x1="68.28" y1="33.35" x2="81.37" y2="33.35" xlink:href="#linear-gradient"/>
    <linearGradient id="linear-gradient-7" x1="81.32" y1="33.35" x2="97.78" y2="33.35" xlink:href="#linear-gradient"/>
    <linearGradient id="linear-gradient-8" x1="98.52" y1="33.35" x2="111.31" y2="33.35" xlink:href="#linear-gradient"/>
    <linearGradient id="linear-gradient-9" x1="112.81" y1="33.35" x2="126.26" y2="33.35" xlink:href="#linear-gradient"/>
    <linearGradient id="linear-gradient-10" x1="128.48" y1="33.35" x2="133.08" y2="33.35" xlink:href="#linear-gradient"/>
    <linearGradient id="linear-gradient-11" x1="134.76" y1="33.35" x2="148.49" y2="33.35" xlink:href="#linear-gradient"/>
    <linearGradient id="linear-gradient-12" x1="148.75" y1="33.35" x2="161.06" y2="33.35" xlink:href="#linear-gradient"/>
    <linearGradient id="linear-gradient-13" x1="1.97" y1="-2633.08" x2="36.45" y2="-2633.08" gradientTransform="translate(-.09 2666.41) rotate(.02)" gradientUnits="userSpaceOnUse">
      <stop offset="0" stop-color="#2e3192"/>
      <stop offset="1" stop-color="#93278f"/>
    </linearGradient>
    <filter id="drop-shadow-2" filterUnits="userSpaceOnUse">
      <feOffset dx="2" dy="2"/>
      <feGaussianBlur result="blur-2" stdDeviation="1.43"/>
      <feFlood flood-color="#000" flood-opacity=".3"/>
      <feComposite in2="blur-2" operator="in"/>
      <feComposite in="SourceGraphic"/>
    </filter>
    <linearGradient id="linear-gradient-14" x1="2.8" y1="-1148.2" x2="37.16" y2="-1148.2" gradientTransform="translate(0 -1123.44) scale(1 -1)" gradientUnits="userSpaceOnUse">
      <stop offset="0" stop-color="#93278f"/>
      <stop offset="1" stop-color="#2e3192"/>
    </linearGradient>
    <filter id="drop-shadow-3" filterUnits="userSpaceOnUse">
      <feOffset dx="2" dy="2"/>
      <feGaussianBlur result="blur-3" stdDeviation="1.43"/>
      <feFlood flood-color="#000" flood-opacity=".3"/>
      <feComposite in2="blur-3" operator="in"/>
      <feComposite in="SourceGraphic"/>
    </filter>
    <linearGradient id="linear-gradient-15" x1="2.89" y1="-1142.37" x2="37.25" y2="-1142.37" gradientTransform="translate(0 -1123.44) scale(1 -1)" xlink:href="#linear-gradient-13"/>
    <filter id="drop-shadow-4" filterUnits="userSpaceOnUse">
      <feOffset dx="2" dy="2"/>
      <feGaussianBlur result="blur-4" stdDeviation="1.43"/>
      <feFlood flood-color="#000" flood-opacity=".3"/>
      <feComposite in2="blur-4" operator="in"/>
      <feComposite in="SourceGraphic"/>
    </filter>
    <linearGradient id="linear-gradient-16" x1="2.42" y1="-1133.7" x2="36.9" y2="-1133.7" gradientTransform="translate(-.09 -1123.46) rotate(-.02) scale(1 -1)" xlink:href="#linear-gradient-14"/>
    <filter id="drop-shadow-5" filterUnits="userSpaceOnUse">
      <feOffset dx="2" dy="2"/>
      <feGaussianBlur result="blur-5" stdDeviation="1.43"/>
      <feFlood flood-color="#000" flood-opacity=".3"/>
      <feComposite in2="blur-5" operator="in"/>
      <feComposite in="SourceGraphic"/>
    </filter>
  </defs>
  <g id="Layer_1-2" data-name="Layer 1">
    <g class="cls-17">
      <path class="cls-3" d="m65.34,13.48v3.52h-12.54v-2.79l6.24-7.16h-6.05v-3.52h12.03v2.79l-6.24,7.16h6.55Z"/>
      <path class="cls-9" d="m66.68,3.53h4.6v13.47h-4.6V3.53Z"/>
      <path class="cls-11" d="m85.56,13.48v3.52h-12.54v-2.79l6.24-7.16h-6.05v-3.52h12.03v2.79l-6.24,7.16h6.55Z"/>
      <path class="cls-16" d="m86.25,10.27c0-4.08,3.26-7.04,7.7-7.04s7.7,2.96,7.7,7.04-3.26,7.04-7.7,7.04-7.7-2.96-7.7-7.04Zm10.76,0c0-2.1-1.37-3.37-3.06-3.37s-3.06,1.27-3.06,3.37,1.37,3.37,3.06,3.37,3.06-1.27,3.06-3.37Z"/>
      <path class="cls-7" d="m62.32,32.98h4v5.7c-1.66,1.12-3.94,1.71-5.95,1.71-4.41,0-7.62-2.91-7.62-7.04s3.22-7.04,7.72-7.04c2.69,0,4.86.92,6.24,2.6l-2.94,2.56c-.86-.98-1.85-1.48-3.06-1.48-2.03,0-3.32,1.29-3.32,3.37s1.29,3.37,3.26,3.37c.57,0,1.11-.1,1.68-.33v-3.41Z"/>
      <path class="cls-5" d="m74.13,36.7h-1.25v3.39h-4.6v-13.47h6.57c3.8,0,6.22,1.96,6.22,5.08,0,1.94-.94,3.41-2.57,4.23l2.87,4.16h-4.91l-2.32-3.39Zm.43-6.58h-1.68v3.16h1.68c1.27,0,1.87-.6,1.87-1.58s-.6-1.58-1.87-1.58Z"/>
      <path class="cls-10" d="m92.11,37.74h-5.19l-.92,2.35h-4.68l5.97-13.47h4.52l5.97,13.47h-4.76l-.92-2.35Zm-1.27-3.27l-1.33-3.39-1.33,3.39h2.65Z"/>
      <path class="cls-14" d="m111.31,31.69c0,3.12-2.42,5.08-6.22,5.08h-1.97v3.31h-4.6v-13.47h6.57c3.8,0,6.22,1.96,6.22,5.08Zm-4.64,0c0-.98-.6-1.58-1.87-1.58h-1.68v3.16h1.68c1.27,0,1.87-.6,1.87-1.58Z"/>
      <path class="cls-13" d="m126.26,26.61v13.47h-4.6v-4.96h-4.25v4.96h-4.6v-13.47h4.6v4.77h4.25v-4.77h4.6Z"/>
      <path class="cls-15" d="m128.48,26.61h4.6v13.47h-4.6v-13.47Z"/>
      <path class="cls-6" d="m134.76,33.35c0-4.14,3.22-7.04,7.61-7.04,2.67,0,4.78.96,6.12,2.69l-2.91,2.56c-.8-1-1.75-1.58-2.98-1.58-1.91,0-3.2,1.31-3.2,3.37s1.29,3.37,3.2,3.37c1.23,0,2.18-.58,2.98-1.58l2.91,2.56c-1.35,1.73-3.45,2.69-6.12,2.69-4.39,0-7.61-2.91-7.61-7.04Z"/>
      <path class="cls-2" d="m148.75,39.01l1.48-3.31c1.29.75,3,1.23,4.5,1.23,1.31,0,1.77-.27,1.77-.73,0-1.69-7.55-.33-7.55-5.35,0-2.5,2.13-4.54,6.36-4.54,1.83,0,3.72.38,5.15,1.17l-1.38,3.29c-1.35-.67-2.61-1-3.8-1-1.35,0-1.77.38-1.77.85,0,1.62,7.55.27,7.55,5.23,0,2.46-2.13,4.54-6.36,4.54-2.28,0-4.58-.56-5.95-1.38Z"/>
    </g>
    <g id="Pictorial">
      <g id="Layer_1-2" data-name="Layer 1-2">
        <g id="Zizo_Graphics_New_Logo" data-name="Zizo Graphics New Logo">
          <path class="cls-12" d="m37.28,38.7c-2.45-7.35-9.4-12.32-17.24-12.32-7.84,0-14.79,4.96-17.24,12.31,4.82.9,10.76,1.61,17.54,1.59,6.52-.02,12.25-.71,16.94-1.58Z"/>
          <path class="cls-1" d="m37.16,10.71c-.24,15.79-13.28,28.51-29.34,28.51-1.68,0-3.36-.14-5.02-.42.24-15.79,13.29-28.51,29.34-28.51,1.68,0,3.36.14,5.02.42Z"/>
          <path class="cls-4" d="m37.25,4.88c-.24,15.79-13.28,28.51-29.34,28.51-1.68,0-3.36-.14-5.02-.42.24-15.79,13.29-28.51,29.34-28.51,1.68,0,3.36.14,5.02.42Z"/>
          <path class="cls-8" d="m37.21,4.86c-2.45,7.35-9.4,12.32-17.24,12.32-7.84,0-14.79-4.96-17.24-12.31,4.82-.9,10.76-1.61,17.54-1.59,6.52.02,12.25.71,16.94,1.58Z"/>
        </g>
      </g>
    </g>
  </g>
</svg>